<svg viewBox="0 0 1440 320" xmlns="http://www.w3.org/2000/svg" preserveAspectRatio="none">
    <defs>
        <linearGradient id="grad1" x1="0%" y1="0%" x2="100%" y2="100%">
            <stop offset="0%" style="stop-color:#6b7280;stop-opacity:1" />
            <stop offset="100%" style="stop-color:#374151;stop-opacity:1" />
        </linearGradient>
        <linearGradient id="grad2" x1="0%" y1="0%" x2="100%" y2="100%">
            <stop offset="0%" style="stop-color:#4b5563;stop-opacity:0.9" />
            <stop offset="100%" style="stop-color:#1f2937;stop-opacity:0.9" />
        </linearGradient>
        <linearGradient id="grad3" x1="0%" y1="0%" x2="100%" y2="100%">
            <stop offset="0%" style="stop-color:#6b7280;stop-opacity:0.7" />
            <stop offset="100%" style="stop-color:#111827;stop-opacity:0.7" />
        </linearGradient>
    </defs>
    <path fill="url(#grad1)" d="M0,192L48,197.3C96,203,192,213,288,229.3C384,245,480,267,576,250.7C672,235,768,181,864,181.3C960,181,1056,235,1152,234.7C1248,235,1344,181,1392,154.7L1440,128L1440,320L1392,320C1344,320,1248,320,1152,320C1056,320,960,320,864,320C768,320,672,320,576,320C480,320,384,320,288,320C192,320,96,320,48,320L0,320Z">
        <animate attributeName="d" dur="10s" repeatCount="indefinite" values="
      M0,192L48,197.3C96,203,192,213,288,229.3C384,245,480,267,576,250.7C672,235,768,181,864,181.3C960,181,1056,235,1152,234.7C1248,235,1344,181,1392,154.7L1440,128L1440,320L1392,320C1344,320,1248,320,1152,320C1056,320,960,320,864,320C768,320,672,320,576,320C480,320,384,320,288,320C192,320,96,320,48,320L0,320Z;
      M0,224L48,213.3C96,203,192,181,288,186.7C384,192,480,224,576,229.3C672,235,768,213,864,192C960,171,1056,149,1152,154.7C1248,160,1344,192,1392,208L1440,224L1440,320L1392,320C1344,320,1248,320,1152,320C1056,320,960,320,864,320C768,320,672,320,576,320C480,320,384,320,288,320C192,320,96,320,48,320L0,320Z;
      M0,192L48,197.3C96,203,192,213,288,229.3C384,245,480,267,576,250.7C672,235,768,181,864,181.3C960,181,1056,235,1152,234.7C1248,235,1344,181,1392,154.7L1440,128L1440,320L1392,320C1344,320,1248,320,1152,320C1056,320,960,320,864,320C768,320,672,320,576,320C480,320,384,320,288,320C192,320,96,320,48,320L0,320Z" />
    </path>
    <path fill="url(#grad2)" d="M0,96L48,112C96,128,192,160,288,176C384,192,480,192,576,181.3C672,171,768,149,864,160C960,171,1056,213,1152,213.3C1248,213,1344,171,1392,149.3L1440,128L1440,320L1392,320C1344,320,1248,320,1152,320C1056,320,960,320,864,320C768,320,672,320,576,320C480,320,384,320,288,320C192,320,96,320,48,320L0,320Z">
        <animate attributeName="d" dur="8s" repeatCount="indefinite" values="
      M0,96L48,112C96,128,192,160,288,176C384,192,480,192,576,181.3C672,171,768,149,864,160C960,171,1056,213,1152,213.3C1248,213,1344,171,1392,149.3L1440,128L1440,320L1392,320C1344,320,1248,320,1152,320C1056,320,960,320,864,320C768,320,672,320,576,320C480,320,384,320,288,320C192,320,96,320,48,320L0,320Z;
      M0,128L48,133.3C96,139,192,149,288,154.7C384,160,480,160,576,144C672,128,768,96,864,90.7C960,85,1056,107,1152,128C1248,149,1344,171,1392,181.3L1440,192L1440,320L1392,320C1344,320,1248,320,1152,320C1056,320,960,320,864,320C768,320,672,320,576,320C480,320,384,320,288,320C192,320,96,320,48,320L0,320Z;
      M0,96L48,112C96,128,192,160,288,176C384,192,480,192,576,181.3C672,171,768,149,864,160C960,171,1056,213,1152,213.3C1248,213,1344,171,1392,149.3L1440,128L1440,320L1392,320C1344,320,1248,320,1152,320C1056,320,960,320,864,320C768,320,672,320,576,320C480,320,384,320,288,320C192,320,96,320,48,320L0,320Z" />
    </path>
    <path fill="url(#grad3)" d="M0,160L48,154.7C96,149,192,139,288,154.7C384,171,480,213,576,218.7C672,224,768,192,864,165.3C960,139,1056,117,1152,122.7C1248,128,1344,160,1392,176L1440,192L1440,320L1392,320C1344,320,1248,320,1152,320C1056,320,960,320,864,320C768,320,672,320,576,320C480,320,384,320,288,320C192,320,96,320,48,320L0,320Z">
        <animate attributeName="d" dur="12s" repeatCount="indefinite" values="
      M0,160L48,154.7C96,149,192,139,288,154.7C384,171,480,213,576,218.7C672,224,768,192,864,165.3C960,139,1056,117,1152,122.7C1248,128,1344,160,1392,176L1440,192L1440,320L1392,320C1344,320,1248,320,1152,320C1056,320,960,320,864,320C768,320,672,320,576,320C480,320,384,320,288,320C192,320,96,320,48,320L0,320Z;
      M0,128L48,138.7C96,149,192,171,288,165.3C384,160,480,128,576,122.7C672,117,768,139,864,154.7C960,171,1056,181,1152,170.7C1248,160,1344,128,1392,112L1440,96L1440,320L1392,320C1344,320,1248,320,1152,320C1056,320,960,320,864,320C768,320,672,320,576,320C480,320,384,320,288,320C192,320,96,320,48,320L0,320Z;
      M0,160L48,154.7C96,149,192,139,288,154.7C384,171,480,213,576,218.7C672,224,768,192,864,165.3C960,139,1056,117,1152,122.7C1248,128,1344,160,1392,176L1440,192L1440,320L1392,320C1344,320,1248,320,1152,320C1056,320,960,320,864,320C768,320,672,320,576,320C480,320,384,320,288,320C192,320,96,320,48,320L0,320Z" />
    </path>
</svg>